<svg xmlns="http://www.w3.org/2000/svg" xmlns:xlink="http://www.w3.org/1999/xlink" width="188" zoomAndPan="magnify" viewBox="0 0 141 50.249999" height="67" preserveAspectRatio="xMidYMid meet" version="1.0"><defs><clipPath id="4bdcb6ade7"><path d="M 33.28125 0.371094 L 88 0.371094 L 88 45 L 33.28125 45 Z M 33.28125 0.371094 " clip-rule="nonzero"/></clipPath><clipPath id="a58557d6ec"><path d="M 84 5 L 107.71875 5 L 107.71875 45 L 84 45 Z M 84 5 " clip-rule="nonzero"/></clipPath><clipPath id="bf39a1c8e2"><path d="M 92 11 L 107.71875 11 L 107.71875 32 L 92 32 Z M 92 11 " clip-rule="nonzero"/></clipPath><clipPath id="641fd687ea"><path d="M 100 34 L 107.71875 34 L 107.71875 37 L 100 37 Z M 100 34 " clip-rule="nonzero"/></clipPath><clipPath id="70fa2e10c6"><path d="M 33.28125 34 L 88 34 L 88 37 L 33.28125 37 Z M 33.28125 34 " clip-rule="nonzero"/></clipPath><clipPath id="a7707a8916"><path d="M 38 36 L 52 36 L 52 49.140625 L 38 49.140625 Z M 38 36 " clip-rule="nonzero"/></clipPath><clipPath id="76fd3ebd70"><path d="M 55 36 L 68 36 L 68 49.140625 L 55 49.140625 Z M 55 36 " clip-rule="nonzero"/></clipPath><clipPath id="258ba604e8"><path d="M 90 36 L 103 36 L 103 49.140625 L 90 49.140625 Z M 90 36 " clip-rule="nonzero"/></clipPath></defs><g clip-path="url(#4bdcb6ade7)"><path stroke-linecap="round" transform="matrix(-1.289496, 0, 0, 1.286409, 107.719396, 0.50699)" fill="none" stroke-linejoin="round" d="M 52.658553 32.850076 L 56.869259 32.850076 C 56.869259 32.850076 56.869259 27.141355 56.869259 27.141355 L 56.869259 4.309509 C 56.869259 2.481504 55.390968 0.999666 53.56128 0.999666 L 20.069511 0.999666 C 18.239823 0.999666 16.758503 2.481504 16.758503 4.309509 L 16.758503 4.998807 C 16.758503 4.998807 16.758503 27.141355 16.758503 27.141355 L 16.758503 32.850076 C 16.758503 32.850076 32.18059 32.850076 32.18059 32.850076 " stroke="#ffffff" stroke-width="2" stroke-opacity="1" stroke-miterlimit="4"/></g><path stroke-linecap="round" transform="matrix(-1.289496, 0, 0, 1.286409, 107.719396, 0.50699)" fill="none" stroke-linejoin="round" d="M 39.868914 32.850076 L 44.961142 32.850076 " stroke="#ffffff" stroke-width="2" stroke-opacity="1" stroke-miterlimit="4"/><g clip-path="url(#a58557d6ec)"><path stroke-linecap="round" transform="matrix(-1.289496, 0, 0, 1.286409, 107.719396, 0.50699)" fill="none" stroke-linejoin="round" d="M 5.029113 32.850076 L 4.850386 32.850076 C 2.720799 32.850076 1.000165 31.131387 1.000165 28.999726 L 1.000165 27.141355 C 1.000165 27.141355 1.000165 17.931488 1.000165 17.931488 C 1.000165 17.26952 1.1486 16.619697 1.439411 16.021496 L 4.798888 9.149775 L 5.928811 6.860214 C 6.480141 5.721506 7.640357 4.998807 8.900539 4.998807 L 16.758503 4.998807 L 16.758503 27.141355 C 16.758503 27.141355 16.758503 32.850076 16.758503 32.850076 L 12.720467 32.850076 " stroke="#ffffff" stroke-width="2" stroke-opacity="1" stroke-miterlimit="4"/></g><g clip-path="url(#bf39a1c8e2)"><path stroke-linecap="butt" transform="matrix(-1.289496, 0, 0, 1.286409, 107.719396, 0.50699)" fill="none" stroke-linejoin="round" d="M 1.000165 23.099702 L 11.008921 17.011413 L 11.008921 9.171031 L 4.798888 9.171031 " stroke="#ffffff" stroke-width="2" stroke-opacity="1" stroke-miterlimit="4"/></g><g clip-path="url(#641fd687ea)"><path stroke-linecap="round" transform="matrix(-1.289496, 0, 0, 1.286409, 107.719396, 0.50699)" fill="none" stroke-linejoin="round" d="M 1.000165 27.141355 L 4.750419 27.141355 " stroke="#ffffff" stroke-width="2" stroke-opacity="1" stroke-miterlimit="4"/></g><g clip-path="url(#70fa2e10c6)"><path stroke-linecap="round" transform="matrix(-1.289496, 0, 0, 1.286409, 107.719396, 0.50699)" fill="none" stroke-linejoin="round" d="M 16.758503 27.141355 L 56.881376 27.141355 " stroke="#ffffff" stroke-width="2" stroke-opacity="1" stroke-miterlimit="4"/></g><g clip-path="url(#a7707a8916)"><path stroke-linecap="round" transform="matrix(-1.289496, 0, 0, 1.286409, 107.719396, 0.50699)" fill="none" stroke-linejoin="round" d="M 52.658553 32.850076 C 52.658553 33.10211 52.634319 33.354144 52.585851 33.600105 C 52.537382 33.849102 52.464679 34.08899 52.367742 34.322804 C 52.270805 34.556619 52.152663 34.778287 52.010287 34.98781 C 51.870939 35.200368 51.710387 35.394708 51.53166 35.573864 C 51.352932 35.749984 51.159058 35.910922 50.950037 36.050603 C 50.737987 36.190285 50.516849 36.30871 50.283594 36.40588 C 50.050339 36.50305 49.807997 36.575927 49.559595 36.624512 C 49.314223 36.676133 49.062793 36.700426 48.811362 36.700426 C 48.556902 36.700426 48.305472 36.676133 48.0601 36.624512 C 47.811698 36.575927 47.569355 36.50305 47.336101 36.40588 C 47.102846 36.30871 46.881708 36.190285 46.669658 36.050603 C 46.460637 35.910922 46.266763 35.749984 46.088035 35.573864 C 45.909308 35.394708 45.748755 35.200368 45.609408 34.98781 C 45.467032 34.778287 45.34889 34.556619 45.251953 34.322804 C 45.155016 34.08899 45.082313 33.849102 45.033844 33.600105 C 44.985376 33.354144 44.961142 33.10211 44.961142 32.850076 C 44.961142 32.598042 44.985376 32.346008 45.033844 32.100047 C 45.082313 31.85105 45.155016 31.611162 45.251953 31.377347 C 45.34889 31.143533 45.467032 30.921864 45.609408 30.712342 C 45.748755 30.499783 45.909308 30.305444 46.088035 30.126287 C 46.266763 29.950167 46.460637 29.78923 46.669658 29.649548 C 46.881708 29.509867 47.102846 29.388405 47.336101 29.294272 C 47.569355 29.197102 47.811698 29.124225 48.0601 29.072603 C 48.305472 29.024018 48.556902 28.999726 48.811362 28.999726 C 49.062793 28.999726 49.314223 29.024018 49.559595 29.072603 C 49.807997 29.124225 50.050339 29.197102 50.283594 29.294272 C 50.516849 29.388405 50.737987 29.509867 50.950037 29.649548 C 51.159058 29.78923 51.352932 29.950167 51.53166 30.126287 C 51.710387 30.305444 51.870939 30.499783 52.010287 30.712342 C 52.152663 30.921864 52.270805 31.143533 52.367742 31.377347 C 52.464679 31.611162 52.537382 31.85105 52.585851 32.100047 C 52.634319 32.346008 52.658553 32.598042 52.658553 32.850076 Z M 52.658553 32.850076 " stroke="#ffffff" stroke-width="2" stroke-opacity="1" stroke-miterlimit="4"/></g><g clip-path="url(#76fd3ebd70)"><path stroke-linecap="round" transform="matrix(-1.289496, 0, 0, 1.286409, 107.719396, 0.50699)" fill="none" stroke-linejoin="round" d="M 39.881031 32.850076 C 39.881031 33.10211 39.856797 33.354144 39.805299 33.600105 C 39.756831 33.849102 39.684128 34.08899 39.587191 34.322804 C 39.490254 34.556619 39.372112 34.778287 39.229735 34.98781 C 39.090388 35.200368 38.929836 35.394708 38.751108 35.573864 C 38.572381 35.749984 38.378506 35.910922 38.169486 36.050603 C 37.957436 36.190285 37.736298 36.30871 37.503043 36.40588 C 37.269788 36.50305 37.030475 36.575927 36.782073 36.624512 C 36.533672 36.676133 36.282241 36.700426 36.030811 36.700426 C 35.776351 36.700426 35.52795 36.676133 35.279548 36.624512 C 35.031147 36.575927 34.788804 36.50305 34.555549 36.40588 C 34.322294 36.30871 34.101157 36.190285 33.892136 36.050603 C 33.680086 35.910922 33.486212 35.749984 33.307484 35.573864 C 33.128756 35.394708 32.968204 35.200368 32.828857 34.98781 C 32.68951 34.778287 32.568339 34.556619 32.474431 34.322804 C 32.377494 34.08899 32.304791 33.849102 32.253293 33.600105 C 32.204825 33.354144 32.18059 33.10211 32.18059 32.850076 C 32.18059 32.598042 32.204825 32.346008 32.253293 32.100047 C 32.304791 31.85105 32.377494 31.611162 32.474431 31.377347 C 32.568339 31.143533 32.68951 30.921864 32.828857 30.712342 C 32.968204 30.499783 33.128756 30.305444 33.307484 30.126287 C 33.486212 29.950167 33.680086 29.78923 33.892136 29.649548 C 34.101157 29.509867 34.322294 29.388405 34.555549 29.294272 C 34.788804 29.197102 35.031147 29.124225 35.279548 29.072603 C 35.52795 29.024018 35.776351 28.999726 36.030811 28.999726 C 36.282241 28.999726 36.533672 29.024018 36.782073 29.072603 C 37.030475 29.124225 37.269788 29.197102 37.503043 29.294272 C 37.736298 29.388405 37.957436 29.509867 38.169486 29.649548 C 38.378506 29.78923 38.572381 29.950167 38.751108 30.126287 C 38.929836 30.305444 39.090388 30.499783 39.229735 30.712342 C 39.372112 30.921864 39.490254 31.143533 39.587191 31.377347 C 39.684128 31.611162 39.756831 31.85105 39.805299 32.100047 C 39.856797 32.346008 39.881031 32.598042 39.881031 32.850076 Z M 39.881031 32.850076 " stroke="#ffffff" stroke-width="2" stroke-opacity="1" stroke-miterlimit="4"/></g><g clip-path="url(#258ba604e8)"><path stroke-linecap="round" transform="matrix(-1.289496, 0, 0, 1.286409, 107.719396, 0.50699)" fill="none" stroke-linejoin="round" d="M 12.729555 32.850076 C 12.729555 33.10211 12.70532 33.354144 12.656852 33.600105 C 12.605354 33.849102 12.532651 34.08899 12.435714 34.322804 C 12.338777 34.556619 12.220635 34.778287 12.081288 34.98781 C 11.941941 35.200368 11.781389 35.394708 11.602661 35.573864 C 11.423933 35.749984 11.230059 35.910922 11.018009 36.050603 C 10.808988 36.190285 10.58785 36.30871 10.354596 36.40588 C 10.118311 36.50305 9.878998 36.575927 9.630597 36.624512 C 9.382195 36.676133 9.133794 36.700426 8.879334 36.700426 C 8.627903 36.700426 8.376473 36.676133 8.128071 36.624512 C 7.87967 36.575927 7.640357 36.50305 7.407102 36.40588 C 7.173847 36.30871 6.952709 36.190285 6.740659 36.050603 C 6.531639 35.910922 6.337764 35.749984 6.159037 35.573864 C 5.980309 35.394708 5.819757 35.200368 5.67738 34.98781 C 5.538033 34.778287 5.419891 34.556619 5.322954 34.322804 C 5.226017 34.08899 5.153314 33.849102 5.104846 33.600105 C 5.053348 33.354144 5.029113 33.10211 5.029113 32.850076 C 5.029113 32.598042 5.053348 32.346008 5.104846 32.100047 C 5.153314 31.85105 5.226017 31.611162 5.322954 31.377347 C 5.419891 31.143533 5.538033 30.921864 5.67738 30.712342 C 5.819757 30.499783 5.980309 30.305444 6.159037 30.126287 C 6.337764 29.950167 6.531639 29.78923 6.740659 29.649548 C 6.952709 29.509867 7.173847 29.388405 7.407102 29.294272 C 7.640357 29.197102 7.87967 29.124225 8.128071 29.072603 C 8.376473 29.024018 8.627903 28.999726 8.879334 28.999726 C 9.133794 28.999726 9.382195 29.024018 9.630597 29.072603 C 9.878998 29.124225 10.118311 29.197102 10.354596 29.294272 C 10.58785 29.388405 10.808988 29.509867 11.018009 29.649548 C 11.230059 29.78923 11.423933 29.950167 11.602661 30.126287 C 11.781389 30.305444 11.941941 30.499783 12.081288 30.712342 C 12.220635 30.921864 12.338777 31.143533 12.435714 31.377347 C 12.532651 31.611162 12.605354 31.85105 12.656852 32.100047 C 12.70532 32.346008 12.729555 32.598042 12.729555 32.850076 Z M 12.729555 32.850076 " stroke="#ffffff" stroke-width="2" stroke-opacity="1" stroke-miterlimit="4"/></g></svg>