<svg xmlns="http://www.w3.org/2000/svg" xmlns:xlink="http://www.w3.org/1999/xlink" width="188" zoomAndPan="magnify" viewBox="0 0 141 50.249999" height="67" preserveAspectRatio="xMidYMid meet" version="1.0"><defs><clipPath id="41e109bd03"><path d="M 109 25 L 120.996094 25 L 120.996094 29 L 109 29 Z M 109 25 " clip-rule="nonzero"/></clipPath><clipPath id="f4f6282c90"><path d="M 20 0.347656 L 120.996094 0.347656 L 120.996094 43 L 20 43 Z M 20 0.347656 " clip-rule="nonzero"/></clipPath><clipPath id="0d55bdcc20"><path d="M 45 0.347656 L 103 0.347656 L 103 21 L 45 21 Z M 45 0.347656 " clip-rule="nonzero"/></clipPath><clipPath id="3c9a84140b"><path d="M 65 0.347656 L 69 0.347656 L 69 21 L 65 21 Z M 65 0.347656 " clip-rule="nonzero"/></clipPath></defs><g clip-path="url(#41e109bd03)"><path stroke-linecap="round" transform="matrix(-1.677253, 0, 0, 1.672048, 120.997959, 0.531026)" fill="none" stroke-linejoin="round" d="M 1.000235 15.919048 L 5.599926 15.919048 " stroke="#ffffff" stroke-width="2" stroke-opacity="1" stroke-miterlimit="4"/></g><path stroke-linecap="round" transform="matrix(-1.677253, 0, 0, 1.672048, 120.997959, 0.531026)" fill="none" stroke-linejoin="round" d="M 50.679227 24.10979 C 50.679227 24.3621 50.653609 24.612074 50.602372 24.862049 C 50.548806 25.109687 50.47195 25.350316 50.369476 25.583937 C 50.267002 25.817557 50.141238 26.039497 49.992185 26.249756 C 49.843132 26.460014 49.675447 26.653919 49.484472 26.831471 C 49.295827 27.011359 49.088549 27.170221 48.867298 27.310393 C 48.643718 27.450566 48.408494 27.569712 48.161624 27.667833 C 47.914755 27.763618 47.658569 27.83604 47.395397 27.8851 C 47.132225 27.936497 46.869053 27.959859 46.598894 27.959859 C 46.331064 27.959859 46.067891 27.936497 45.804719 27.8851 C 45.541547 27.83604 45.285362 27.763618 45.038492 27.667833 C 44.791623 27.569712 44.556398 27.450566 44.332818 27.310393 C 44.111567 27.170221 43.90429 27.011359 43.715644 26.831471 C 43.52467 26.653919 43.356985 26.460014 43.207932 26.249756 C 43.058878 26.039497 42.933115 25.817557 42.830641 25.583937 C 42.728166 25.350316 42.651311 25.109687 42.597745 24.862049 C 42.546508 24.612074 42.520889 24.3621 42.520889 24.10979 C 42.520889 23.85748 42.546508 23.607505 42.597745 23.359867 C 42.651311 23.109893 42.728166 22.869264 42.830641 22.635643 C 42.933115 22.402023 43.058878 22.180083 43.207932 21.972161 C 43.356985 21.761902 43.52467 21.565661 43.715644 21.388109 C 43.90429 21.208221 44.111567 21.049359 44.332818 20.909186 C 44.556398 20.769014 44.791623 20.649867 45.038492 20.554083 C 45.285362 20.455962 45.541547 20.38354 45.804719 20.334479 C 46.067891 20.285419 46.331064 20.259721 46.598894 20.259721 C 46.869053 20.259721 47.132225 20.285419 47.395397 20.334479 C 47.658569 20.38354 47.914755 20.455962 48.161624 20.554083 C 48.408494 20.649867 48.643718 20.769014 48.867298 20.909186 C 49.088549 21.049359 49.295827 21.208221 49.484472 21.388109 C 49.675447 21.565661 49.843132 21.761902 49.992185 21.972161 C 50.141238 22.180083 50.267002 22.402023 50.369476 22.635643 C 50.47195 22.869264 50.548806 23.109893 50.602372 23.359867 C 50.653609 23.607505 50.679227 23.85748 50.679227 24.10979 Z M 50.679227 24.10979 " stroke="#ffffff" stroke-width="2" stroke-opacity="1" stroke-miterlimit="4"/><path stroke-linecap="round" transform="matrix(-1.677253, 0, 0, 1.672048, 120.997959, 0.531026)" fill="none" stroke-linejoin="round" d="M 16.539039 24.10979 C 16.539039 24.3621 16.513421 24.612074 16.462184 24.862049 C 16.408618 25.109687 16.331762 25.350316 16.229288 25.583937 C 16.126814 25.817557 16.00105 26.039497 15.851997 26.249756 C 15.702944 26.460014 15.535259 26.653919 15.344284 26.831471 C 15.155639 27.011359 14.948361 27.170221 14.72711 27.310393 C 14.50353 27.450566 14.268306 27.569712 14.021436 27.667833 C 13.774567 27.763618 13.518381 27.83604 13.255209 27.8851 C 12.994366 27.936497 12.728865 27.959859 12.461035 27.959859 C 12.193205 27.959859 11.927703 27.936497 11.664531 27.8851 C 11.401359 27.83604 11.145174 27.763618 10.898304 27.667833 C 10.651435 27.569712 10.41621 27.450566 10.19263 27.310393 C 9.971379 27.170221 9.764102 27.011359 9.575456 26.831471 C 9.384482 26.653919 9.216797 26.460014 9.067744 26.249756 C 8.91869 26.039497 8.792927 25.817557 8.690453 25.583937 C 8.587978 25.350316 8.511123 25.109687 8.457557 24.862049 C 8.40632 24.612074 8.380701 24.3621 8.380701 24.10979 C 8.380701 23.85748 8.40632 23.607505 8.457557 23.359867 C 8.511123 23.109893 8.587978 22.869264 8.690453 22.635643 C 8.792927 22.402023 8.91869 22.180083 9.067744 21.972161 C 9.216797 21.761902 9.384482 21.565661 9.575456 21.388109 C 9.764102 21.208221 9.971379 21.049359 10.19263 20.909186 C 10.41621 20.769014 10.651435 20.649867 10.898304 20.554083 C 11.145174 20.455962 11.401359 20.38354 11.664531 20.334479 C 11.927703 20.285419 12.193205 20.259721 12.461035 20.259721 C 12.728865 20.259721 12.994366 20.285419 13.255209 20.334479 C 13.518381 20.38354 13.774567 20.455962 14.021436 20.554083 C 14.268306 20.649867 14.50353 20.769014 14.72711 20.909186 C 14.948361 21.049359 15.155639 21.208221 15.344284 21.388109 C 15.535259 21.565661 15.702944 21.761902 15.851997 21.972161 C 16.00105 22.180083 16.126814 22.402023 16.229288 22.635643 C 16.331762 22.869264 16.408618 23.109893 16.462184 23.359867 C 16.513421 23.607505 16.539039 23.85748 16.539039 24.10979 Z M 16.539039 24.10979 " stroke="#ffffff" stroke-width="2" stroke-opacity="1" stroke-miterlimit="4"/><path stroke-linecap="round" transform="matrix(-1.677253, 0, 0, 1.672048, 120.997959, 0.531026)" fill="none" stroke-linejoin="round" d="M 16.539039 24.10979 L 42.509244 24.10979 " stroke="#ffffff" stroke-width="2" stroke-opacity="1" stroke-miterlimit="4"/><g clip-path="url(#f4f6282c90)"><path stroke-linecap="round" transform="matrix(-1.677253, 0, 0, 1.672048, 120.997959, 0.531026)" fill="none" stroke-linejoin="round" d="M 8.369056 24.10979 L 4.279407 24.10979 C 2.469807 24.10979 1.000235 22.920661 1.000235 21.44885 L 1.000235 16.070902 C 1.000235 16.070902 1.000235 14.400514 1.000235 14.400514 C 1.000235 12.529212 2.521044 11.010677 4.388868 11.010677 L 11.829887 11.010677 C 12.658996 11.010677 13.460158 10.699962 14.07966 10.150953 L 23.160265 2.020953 C 23.900874 1.359806 24.851089 1.000031 25.840896 1.000031 L 33.021072 1.000031 C 33.021072 1.000031 44.561056 1.000031 44.561056 1.000031 C 45.320296 1.000031 46.018983 1.390177 46.419564 2.030298 L 51.301059 9.830893 C 51.759864 10.569134 52.570341 11.010677 53.429726 11.010677 L 57.179348 11.010677 C 58.390406 11.010677 59.370897 11.889091 59.370897 12.989445 L 59.370897 21.44885 C 59.370897 22.920661 58.050378 24.10979 56.420108 24.10979 L 50.679227 24.10979 " stroke="#ffffff" stroke-width="2" stroke-opacity="1" stroke-miterlimit="4"/></g><g clip-path="url(#0d55bdcc20)"><path stroke-linecap="round" transform="matrix(-1.677253, 0, 0, 1.672048, 120.997959, 0.531026)" fill="none" stroke-linejoin="round" d="M 11.850848 11.010677 L 42.949417 11.010677 C 43.881 11.010677 44.488858 10.010781 44.06033 9.160402 L 39.889167 1.000031 " stroke="#ffffff" stroke-width="2" stroke-opacity="1" stroke-miterlimit="4"/></g><g clip-path="url(#3c9a84140b)"><path stroke-linecap="round" transform="matrix(-1.677253, 0, 0, 1.672048, 120.997959, 0.531026)" fill="none" stroke-linejoin="round" d="M 32.01962 1.000031 L 32.01962 11.010677 " stroke="#ffffff" stroke-width="2" stroke-opacity="1" stroke-miterlimit="4"/></g></svg>