<svg xmlns="http://www.w3.org/2000/svg" xmlns:xlink="http://www.w3.org/1999/xlink" width="188" zoomAndPan="magnify" viewBox="0 0 141 50.249999" height="67" preserveAspectRatio="xMidYMid meet" version="1.0"><defs><clipPath id="a2b61cce9f"><path d="M 101 30 L 109.5625 30 L 109.5625 34 L 101 34 Z M 101 30 " clip-rule="nonzero"/></clipPath><clipPath id="9c31ac5f00"><path d="M 42 36 L 56 36 L 56 49.398438 L 42 49.398438 Z M 42 36 " clip-rule="nonzero"/></clipPath><clipPath id="96494d3c27"><path d="M 87 36 L 101 36 L 101 49.398438 L 87 49.398438 Z M 87 36 " clip-rule="nonzero"/></clipPath><clipPath id="642fca909e"><path d="M 97 20 L 109.5625 20 L 109.5625 45 L 97 45 Z M 97 20 " clip-rule="nonzero"/></clipPath><clipPath id="9ecb2f083a"><path d="M 31.429688 0 L 101 0 L 101 45 L 31.429688 45 Z M 31.429688 0 " clip-rule="nonzero"/></clipPath></defs><g clip-path="url(#a2b61cce9f)"><path stroke-linecap="round" transform="matrix(-1.297728, 0, 0, 1.295241, 109.759726, 0.122735)" fill="none" stroke-linejoin="round" d="M 1.000817 24.698527 L 5.6002 24.698527 " stroke="#ffffff" stroke-width="2" stroke-opacity="1" stroke-miterlimit="4"/></g><g clip-path="url(#9c31ac5f00)"><path stroke-linecap="round" transform="matrix(-1.297728, 0, 0, 1.295241, 109.759726, 0.122735)" fill="none" stroke-linejoin="round" d="M 50.678975 33.010204 C 50.678975 33.263535 50.654894 33.513851 50.600713 33.76115 C 50.549542 34.00845 50.47128 34.249718 50.368938 34.481938 C 50.266596 34.717174 50.140173 34.937331 49.992679 35.14844 C 49.842176 35.35955 49.673612 35.552564 49.483978 35.733515 C 49.294344 35.91145 49.089659 36.07129 48.866914 36.210019 C 48.644169 36.351764 48.409384 36.469382 48.162558 36.565889 C 47.912723 36.662396 47.659877 36.737792 47.394991 36.786046 C 47.133115 36.834299 46.868229 36.861442 46.600333 36.861442 C 46.332437 36.861442 46.067551 36.834299 45.802665 36.786046 C 45.540789 36.737792 45.284933 36.662396 45.038108 36.565889 C 44.791282 36.469382 44.556497 36.351764 44.333752 36.210019 C 44.111007 36.07129 43.903312 35.91145 43.713678 35.733515 C 43.527054 35.552564 43.35548 35.35955 43.207987 35.14844 C 43.057483 34.937331 42.934071 34.717174 42.831728 34.481938 C 42.729386 34.249718 42.651124 34.00845 42.596943 33.76115 C 42.545772 33.513851 42.518681 33.263535 42.518681 33.010204 C 42.518681 32.756873 42.545772 32.506558 42.596943 32.259258 C 42.651124 32.011959 42.729386 31.770691 42.831728 31.535455 C 42.934071 31.303234 43.057483 31.080062 43.207987 30.871968 C 43.35548 30.660859 43.527054 30.467844 43.713678 30.286894 C 43.903312 30.108959 44.111007 29.949119 44.333752 29.807374 C 44.556497 29.668645 44.791282 29.551027 45.038108 29.45452 C 45.284933 29.354997 45.540789 29.282616 45.802665 29.234363 C 46.067551 29.186109 46.332437 29.158966 46.600333 29.158966 C 46.868229 29.158966 47.133115 29.186109 47.394991 29.234363 C 47.659877 29.282616 47.912723 29.354997 48.162558 29.45452 C 48.409384 29.551027 48.644169 29.668645 48.866914 29.807374 C 49.089659 29.949119 49.294344 30.108959 49.483978 30.286894 C 49.673612 30.467844 49.842176 30.660859 49.992679 30.871968 C 50.140173 31.080062 50.266596 31.303234 50.368938 31.535455 C 50.47128 31.770691 50.549542 32.011959 50.600713 32.259258 C 50.654894 32.506558 50.678975 32.756873 50.678975 33.010204 Z M 50.678975 33.010204 " stroke="#ffffff" stroke-width="2" stroke-opacity="1" stroke-miterlimit="4"/></g><g clip-path="url(#96494d3c27)"><path stroke-linecap="round" transform="matrix(-1.297728, 0, 0, 1.295241, 109.759726, 0.122735)" fill="none" stroke-linejoin="round" d="M 16.538787 33.010204 C 16.538787 33.263535 16.514706 33.513851 16.460525 33.76115 C 16.409354 34.00845 16.331092 34.249718 16.22875 34.481938 C 16.126407 34.717174 15.999984 34.937331 15.852491 35.14844 C 15.704998 35.35955 15.533424 35.552564 15.34379 35.733515 C 15.154155 35.91145 14.949471 36.07129 14.726726 36.210019 C 14.503981 36.351764 14.269195 36.469382 14.02237 36.565889 C 13.772534 36.662396 13.519689 36.737792 13.254803 36.786046 C 12.992927 36.834299 12.728041 36.861442 12.460145 36.861442 C 12.192249 36.861442 11.927363 36.834299 11.665487 36.786046 C 11.400601 36.737792 11.144745 36.662396 10.89792 36.565889 C 10.651094 36.469382 10.416309 36.351764 10.193564 36.210019 C 9.970819 36.07129 9.763124 35.91145 9.5765 35.733515 C 9.386866 35.552564 9.215292 35.35955 9.067798 35.14844 C 8.917295 34.937331 8.793882 34.717174 8.69154 34.481938 C 8.589198 34.249718 8.510936 34.00845 8.459765 33.76115 C 8.405584 33.513851 8.381503 33.263535 8.381503 33.010204 C 8.381503 32.756873 8.405584 32.506558 8.459765 32.259258 C 8.510936 32.011959 8.589198 31.770691 8.69154 31.535455 C 8.793882 31.303234 8.917295 31.080062 9.067798 30.871968 C 9.215292 30.660859 9.386866 30.467844 9.5765 30.286894 C 9.763124 30.108959 9.970819 29.949119 10.193564 29.807374 C 10.416309 29.668645 10.651094 29.551027 10.89792 29.45452 C 11.144745 29.354997 11.400601 29.282616 11.665487 29.234363 C 11.927363 29.186109 12.192249 29.158966 12.460145 29.158966 C 12.728041 29.158966 12.992927 29.186109 13.254803 29.234363 C 13.519689 29.282616 13.772534 29.354997 14.02237 29.45452 C 14.269195 29.551027 14.503981 29.668645 14.726726 29.807374 C 14.949471 29.949119 15.154155 30.108959 15.34379 30.286894 C 15.533424 30.467844 15.704998 30.660859 15.852491 30.871968 C 15.999984 31.080062 16.126407 31.303234 16.22875 31.535455 C 16.331092 31.770691 16.409354 32.011959 16.460525 32.259258 C 16.514706 32.506558 16.538787 32.756873 16.538787 33.010204 Z M 16.538787 33.010204 " stroke="#ffffff" stroke-width="2" stroke-opacity="1" stroke-miterlimit="4"/></g><path stroke-linecap="round" transform="matrix(-1.297728, 0, 0, 1.295241, 109.759726, 0.122735)" fill="none" stroke-linejoin="round" d="M 16.538787 33.010204 L 42.509651 33.010204 " stroke="#ffffff" stroke-width="2" stroke-opacity="1" stroke-miterlimit="4"/><g clip-path="url(#642fca909e)"><path stroke-linecap="round" transform="matrix(-1.297728, 0, 0, 1.295241, 109.759726, 0.122735)" fill="none" stroke-linejoin="round" d="M 7.899892 16.839228 L 7.288848 16.839228 C 3.82125 16.821133 1.000817 19.628887 1.000817 23.100128 L 1.000817 29.728962 C 1.000817 31.541486 2.46973 33.010204 4.278781 33.010204 L 8.369463 33.010204 " stroke="#ffffff" stroke-width="2" stroke-opacity="1" stroke-miterlimit="4"/></g><g clip-path="url(#9ecb2f083a)"><path stroke-linecap="round" transform="matrix(-1.297728, 0, 0, 1.295241, 109.759726, 0.122735)" fill="none" stroke-linejoin="round" d="M 50.678975 33.010204 L 56.079036 33.010204 C 57.891097 33.010204 59.36001 31.541486 59.36001 29.728962 L 59.36001 5.330752 C 59.36001 2.939185 57.430557 0.999995 55.040563 0.999995 L 20.340502 0.999995 C 18.859549 0.999995 17.480938 1.759988 16.68929 3.008549 L 14.148793 6.998516 L 7.899892 16.839228 L 22.859929 16.839228 C 23.841211 16.839228 24.638879 16.040028 24.638879 15.059878 L 24.638879 8.768819 C 24.638879 7.788668 23.841211 6.998516 22.859929 6.998516 L 14.148793 6.998516 C 14.148793 6.998516 14.118692 6.998516 14.118692 6.998516 " stroke="#ffffff" stroke-width="2" stroke-opacity="1" stroke-miterlimit="4"/></g></svg>