<svg xmlns="http://www.w3.org/2000/svg" xmlns:xlink="http://www.w3.org/1999/xlink" width="188" zoomAndPan="magnify" viewBox="0 0 141 50.249999" height="67" preserveAspectRatio="xMidYMid meet" version="1.0"><defs><clipPath id="59626cc8b4"><path d="M 93 27 L 99.910156 27 L 99.910156 30 L 93 30 Z M 93 27 " clip-rule="nonzero"/></clipPath><clipPath id="db51179661"><path d="M 59 0.324219 L 65 0.324219 L 65 7 L 59 7 Z M 59 0.324219 " clip-rule="nonzero"/></clipPath><clipPath id="8ff9f25de2"><path d="M 41.082031 26 L 63 26 L 63 49 L 41.082031 49 Z M 41.082031 26 " clip-rule="nonzero"/></clipPath><clipPath id="c69a053771"><path d="M 78 21 L 99.910156 21 L 99.910156 42 L 78 42 Z M 78 21 " clip-rule="nonzero"/></clipPath><clipPath id="f0faa0d9ce"><path d="M 41.082031 21 L 60 21 L 60 39 L 41.082031 39 Z M 41.082031 21 " clip-rule="nonzero"/></clipPath></defs><g clip-path="url(#59626cc8b4)"><path stroke-linecap="round" transform="matrix(-1.003695, 0, 0, 0.997142, 99.91062, 0.443899)" fill="none" stroke-linejoin="round" d="M 1.000673 27.968074 L 5.600862 27.968074 " stroke="#ffffff" stroke-width="2" stroke-opacity="1" stroke-miterlimit="4"/></g><g clip-path="url(#db51179661)"><path stroke-linecap="round" transform="matrix(-1.003695, 0, 0, 0.997142, 99.91062, 0.443899)" fill="none" stroke-linejoin="round" d="M 39.561313 4.800291 L 39.561313 1.948389 C 39.561313 0.871091 39.339476 1.000367 37.829431 1.000367 C 36.319386 1.000367 36.101441 0.871091 36.101441 1.948389 L 36.101441 4.800291 " stroke="#ffffff" stroke-width="2" stroke-opacity="1" stroke-miterlimit="4"/></g><g clip-path="url(#8ff9f25de2)"><path stroke-linecap="round" transform="matrix(-1.003695, 0, 0, 0.997142, 99.91062, 0.443899)" fill="none" stroke-linejoin="round" d="M 57.8998 37.628499 C 57.8998 38.28663 57.83753 38.940843 57.709099 39.587222 C 57.580667 40.233601 57.389966 40.860392 57.136994 41.467597 C 56.884023 42.074801 56.576565 42.654583 56.210729 43.203026 C 55.844893 43.751469 55.428463 44.256819 54.961439 44.722995 C 54.498307 45.189172 53.988472 45.604421 53.44361 45.968744 C 52.894857 46.336984 52.314968 46.642545 51.707836 46.897179 C 51.100705 47.147895 50.474114 47.33985 49.828064 47.469126 C 49.182013 47.594484 48.528179 47.661081 47.870453 47.661081 C 47.212728 47.661081 46.558894 47.594484 45.912843 47.469126 C 45.266793 47.33985 44.640202 47.147895 44.03307 46.897179 C 43.422047 46.642545 42.84605 46.336984 42.297297 45.968744 C 41.748543 45.604421 41.2426 45.189172 40.779468 44.722995 C 40.312443 44.256819 39.896013 43.751469 39.530178 43.203026 C 39.164342 42.654583 38.856884 42.074801 38.603913 41.467597 C 38.350941 40.860392 38.16024 40.233601 38.031808 39.587222 C 37.903376 38.940843 37.841106 38.28663 37.841106 37.628499 C 37.841106 36.970367 37.903376 36.320071 38.031808 35.673692 C 38.16024 35.027314 38.350941 34.400522 38.603913 33.793318 C 38.856884 33.182196 39.164342 32.606331 39.530178 32.057889 C 39.896013 31.509446 40.312443 31.004095 40.779468 30.537919 C 41.2426 30.071743 41.748543 29.656493 42.297297 29.292171 C 42.84605 28.923931 43.422047 28.614452 44.03307 28.363736 C 44.640202 28.113019 45.266793 27.921064 45.912843 27.791789 C 46.558894 27.662513 47.212728 27.599834 47.870453 27.599834 C 48.528179 27.599834 49.182013 27.662513 49.828064 27.791789 C 50.474114 27.921064 51.100705 28.113019 51.707836 28.363736 C 52.314968 28.614452 52.894857 28.923931 53.44361 29.292171 C 53.988472 29.656493 54.498307 30.071743 54.961439 30.537919 C 55.428463 31.004095 55.844893 31.509446 56.210729 32.057889 C 56.576565 32.606331 56.884023 33.182196 57.136994 33.793318 C 57.389966 34.400522 57.580667 35.027314 57.709099 35.673692 C 57.83753 36.320071 57.8998 36.970367 57.8998 37.628499 Z M 57.8998 37.628499 " stroke="#ffffff" stroke-width="2" stroke-opacity="1" stroke-miterlimit="4"/></g><path stroke-linecap="round" transform="matrix(-1.003695, 0, 0, 0.997142, 99.91062, 0.443899)" fill="none" stroke-linejoin="round" d="M 21.000988 39.998554 C 21.000988 40.503905 20.950394 41.001421 20.853097 41.495019 C 20.755801 41.988617 20.60791 42.470463 20.417208 42.93664 C 20.222615 43.398898 19.989102 43.84157 19.708888 44.260737 C 19.428673 44.679904 19.10954 45.067731 18.75538 45.424219 C 18.397328 45.780706 18.008141 46.098019 17.591711 46.376158 C 17.171389 46.658214 16.731608 46.893261 16.264584 47.085216 C 15.801451 47.277171 15.318859 47.426034 14.824592 47.52397 C 14.334216 47.621906 13.832165 47.668916 13.330114 47.668916 C 12.828063 47.668916 12.326012 47.621906 11.831745 47.52397 C 11.341369 47.426034 10.858777 47.277171 10.395645 47.085216 C 9.928621 46.893261 9.488839 46.658214 9.068517 46.376158 C 8.648196 46.098019 8.2629 45.780706 7.904849 45.424219 C 7.550688 45.067731 7.231555 44.679904 6.951341 44.260737 C 6.671126 43.84157 6.437614 43.398898 6.24302 42.93664 C 6.052319 42.470463 5.904428 41.988617 5.807131 41.495019 C 5.709834 41.001421 5.65924 40.503905 5.65924 39.998554 C 5.65924 39.497121 5.709834 38.995688 5.807131 38.502089 C 5.904428 38.008491 6.052319 37.530562 6.24302 37.064386 C 6.437614 36.59821 6.671126 36.159456 6.951341 35.740289 C 7.231555 35.321122 7.550688 34.933295 7.904849 34.576807 C 8.2629 34.220319 8.648196 33.903006 9.068517 33.62095 C 9.488839 33.342811 9.928621 33.107764 10.395645 32.911892 C 10.858777 32.719937 11.341369 32.574992 11.831745 32.477055 C 12.326012 32.379119 12.828063 32.328192 13.330114 32.328192 C 13.832165 32.328192 14.334216 32.379119 14.824592 32.477055 C 15.318859 32.574992 15.801451 32.719937 16.264584 32.911892 C 16.731608 33.107764 17.171389 33.342811 17.591711 33.62095 C 18.008141 33.903006 18.397328 34.220319 18.75538 34.576807 C 19.10954 34.933295 19.428673 35.321122 19.708888 35.740289 C 19.989102 36.159456 20.222615 36.59821 20.417208 37.064386 C 20.60791 37.530562 20.755801 38.008491 20.853097 38.502089 C 20.950394 38.995688 21.000988 39.497121 21.000988 39.998554 Z M 21.000988 39.998554 " stroke="#ffffff" stroke-width="2" stroke-opacity="1" stroke-miterlimit="4"/><path stroke-linecap="round" transform="matrix(-1.003695, 0, 0, 0.997142, 99.91062, 0.443899)" fill="none" stroke-linejoin="round" d="M 35.299716 22.209426 L 20.389965 22.209426 C 20.389965 22.209426 25.651772 6.978392 25.651772 6.978392 C 26.111013 5.669964 27.340843 4.800291 28.718565 4.800291 L 46.979215 4.800291 C 48.769475 4.800291 50.221142 6.249746 50.221142 8.04002 L 50.221142 10.069257 C 50.221142 10.069257 50.221142 22.209426 50.221142 22.209426 L 41.651246 22.209426 " stroke="#ffffff" stroke-width="2" stroke-opacity="1" stroke-miterlimit="4"/><path stroke-linecap="round" transform="matrix(1.003695, 0, 0, -0.997142, 7.701148, 32.631633)" fill="none" stroke-linejoin="round" d="M 41.648862 10.070574 L 50.218758 10.070574 L 50.218758 20.259854 C 50.218758 21.341069 49.350871 22.210742 48.268932 22.210742 L 41.648862 22.210742 Z M 41.648862 10.070574 " stroke="#ffffff" stroke-width="2" stroke-opacity="1" stroke-miterlimit="4"/><path stroke-linecap="round" transform="matrix(-1.003695, 0, 0, 0.997142, 99.91062, 0.443899)" fill="none" stroke-linejoin="round" d="M 24.589292 10.069257 L 33.178647 10.069257 C 34.3501 10.069257 35.311391 11.021197 35.311391 12.200349 L 35.311391 22.221179 L 20.389965 22.221179 C 20.389965 22.221179 24.589292 10.08101 24.589292 10.08101 Z M 24.589292 10.069257 " stroke="#ffffff" stroke-width="2" stroke-opacity="1" stroke-miterlimit="4"/><path stroke-linecap="round" transform="matrix(-1.003695, 0, 0, 0.997142, 99.91062, 0.443899)" fill="none" stroke-linejoin="round" d="M 21.000988 39.990719 L 38.121321 39.990719 " stroke="#ffffff" stroke-width="2" stroke-opacity="1" stroke-miterlimit="4"/><g clip-path="url(#c69a053771)"><path stroke-linecap="round" transform="matrix(-1.003695, 0, 0, 0.997142, 99.91062, 0.443899)" fill="none" stroke-linejoin="round" d="M 5.65924 39.990719 L 3.281308 39.990719 C 2.020342 39.990719 1.000673 38.968265 1.000673 37.710765 L 1.000673 26.871188 C 1.000673 24.289591 3.090606 22.209426 5.65924 22.209426 L 13.330114 22.209426 C 13.330114 22.209426 20.389965 22.209426 20.389965 22.209426 " stroke="#ffffff" stroke-width="2" stroke-opacity="1" stroke-miterlimit="4"/></g><g clip-path="url(#f0faa0d9ce)"><path stroke-linecap="round" transform="matrix(-1.003695, 0, 0, 0.997142, 99.91062, 0.443899)" fill="none" stroke-linejoin="round" d="M 41.651246 22.209426 L 50.221142 22.209426 C 50.221142 22.209426 54.031282 22.209426 54.031282 22.209426 C 56.17181 22.209426 57.8998 23.940938 57.8998 26.079864 L 57.8998 37.628499 " stroke="#ffffff" stroke-width="2" stroke-opacity="1" stroke-miterlimit="4"/></g><path stroke-linecap="round" transform="matrix(-1.003695, 0, 0, 0.997142, 99.91062, 0.443899)" fill="none" stroke-linejoin="round" d="M 13.330114 22.209426 L 13.330114 15.330389 C 13.330114 13.348161 14.131839 11.448199 15.540696 10.069257 " stroke="#ffffff" stroke-width="2" stroke-opacity="1" stroke-miterlimit="4"/><path stroke-linecap="round" transform="matrix(-1.003695, 0, 0, 0.997142, 99.91062, 0.443899)" fill="none" stroke-linejoin="round" d="M 33.030756 26.92995 L 26.091553 26.92995 " stroke="#ffffff" stroke-width="2" stroke-opacity="1" stroke-miterlimit="4"/><path stroke-linecap="round" transform="matrix(-1.003695, 0, 0, 0.997142, 99.91062, 0.443899)" fill="none" stroke-linejoin="round" d="M 33.030756 31.160793 L 26.091553 31.160793 " stroke="#ffffff" stroke-width="2" stroke-opacity="1" stroke-miterlimit="4"/><path stroke-linecap="round" transform="matrix(-1.003695, 0, 0, 0.997142, 99.91062, 0.443899)" fill="none" stroke-linejoin="round" d="M 33.030756 35.270195 L 26.091553 35.270195 " stroke="#ffffff" stroke-width="2" stroke-opacity="1" stroke-miterlimit="4"/></svg>