<svg xmlns="http://www.w3.org/2000/svg" xmlns:xlink="http://www.w3.org/1999/xlink" width="188" zoomAndPan="magnify" viewBox="0 0 141 50.249999" height="67" preserveAspectRatio="xMidYMid meet" version="1.0"><defs><clipPath id="1f37a62e96"><path d="M 21.371094 11 L 31 11 L 31 28 L 21.371094 28 Z M 21.371094 11 " clip-rule="nonzero"/></clipPath><clipPath id="9eec786408"><path d="M 108 26 L 119.621094 26 L 119.621094 30 L 108 30 Z M 108 26 " clip-rule="nonzero"/></clipPath><clipPath id="5128eb547d"><path d="M 39 33 L 56 33 L 56 48.964844 L 39 48.964844 Z M 39 33 " clip-rule="nonzero"/></clipPath><clipPath id="ea50e745c7"><path d="M 90 33 L 108 33 L 108 48.964844 L 90 48.964844 Z M 90 33 " clip-rule="nonzero"/></clipPath><clipPath id="29daafc75a"><path d="M 26 0.191406 L 93 0.191406 L 93 43 L 26 43 Z M 26 0.191406 " clip-rule="nonzero"/></clipPath><clipPath id="07d98e22cf"><path d="M 89 18 L 119.621094 18 L 119.621094 43 L 89 43 Z M 89 18 " clip-rule="nonzero"/></clipPath></defs><g clip-path="url(#1f37a62e96)"><path stroke-linecap="round" transform="matrix(-1.636415, 0, 0, 1.624302, 119.619629, 0.253214)" fill="none" stroke-linejoin="round" d="M 55.629956 16.028946 L 59.060187 16.028946 L 59.060187 7.989435 L 55.629956 7.989435 " stroke="#ffffff" stroke-width="2" stroke-opacity="1" stroke-miterlimit="4"/></g><g clip-path="url(#9eec786408)"><path stroke-linecap="round" transform="matrix(-1.636415, 0, 0, 1.624302, 119.619629, 0.253214)" fill="none" stroke-linejoin="round" d="M 0.99929 16.921157 L 5.59919 16.921157 " stroke="#ffffff" stroke-width="2" stroke-opacity="1" stroke-miterlimit="4"/></g><g clip-path="url(#5128eb547d)"><path stroke-linecap="round" transform="matrix(-1.636415, 0, 0, 1.624302, 119.619629, 0.253214)" fill="none" stroke-linejoin="round" d="M 47.709631 25.109771 C 47.709631 25.362283 47.68576 25.61239 47.638019 25.860093 C 47.590277 26.1102 47.518665 26.350688 47.425569 26.583962 C 47.332473 26.817235 47.217893 27.038484 47.08183 27.250113 C 46.945766 27.459338 46.790606 27.654133 46.61635 27.832094 C 46.44448 28.010055 46.255901 28.171182 46.052999 28.310665 C 45.84771 28.452553 45.632873 28.570392 45.408488 28.666587 C 45.181716 28.762782 44.947782 28.837333 44.706687 28.885431 C 44.467979 28.935933 44.224497 28.959982 43.981016 28.959982 C 43.735147 28.959982 43.491665 28.935933 43.252957 28.885431 C 43.011862 28.837333 42.777928 28.762782 42.553543 28.666587 C 42.326771 28.570392 42.111934 28.452553 41.906645 28.310665 C 41.703743 28.171182 41.515164 28.010055 41.343294 27.832094 C 41.169038 27.654133 41.013878 27.459338 40.877814 27.250113 C 40.741751 27.038484 40.627171 26.817235 40.534075 26.583962 C 40.440979 26.350688 40.369367 26.1102 40.321625 25.860093 C 40.273884 25.61239 40.250013 25.362283 40.250013 25.109771 C 40.250013 24.857258 40.273884 24.607151 40.321625 24.359448 C 40.369367 24.111746 40.440979 23.871258 40.534075 23.63558 C 40.627171 23.402306 40.741751 23.181057 40.877814 22.971833 C 41.013878 22.760203 41.169038 22.565408 41.343294 22.387447 C 41.515164 22.209486 41.703743 22.048359 41.906645 21.908876 C 42.111934 21.769393 42.326771 21.649149 42.553543 21.552954 C 42.777928 21.456759 43.011862 21.382208 43.252957 21.33411 C 43.491665 21.283608 43.735147 21.259559 43.981016 21.259559 C 44.224497 21.259559 44.467979 21.283608 44.706687 21.33411 C 44.947782 21.382208 45.181716 21.456759 45.408488 21.552954 C 45.632873 21.649149 45.84771 21.769393 46.052999 21.908876 C 46.255901 22.048359 46.44448 22.209486 46.61635 22.387447 C 46.790606 22.565408 46.945766 22.760203 47.08183 22.971833 C 47.217893 23.181057 47.332473 23.402306 47.425569 23.63558 C 47.518665 23.871258 47.590277 24.111746 47.638019 24.359448 C 47.68576 24.607151 47.709631 24.857258 47.709631 25.109771 Z M 47.709631 25.109771 " stroke="#ffffff" stroke-width="2" stroke-opacity="1" stroke-miterlimit="4"/></g><g clip-path="url(#ea50e745c7)"><path stroke-linecap="round" transform="matrix(-1.636415, 0, 0, 1.624302, 119.619629, 0.253214)" fill="none" stroke-linejoin="round" d="M 16.539168 25.109771 C 16.539168 25.362283 16.51291 25.61239 16.462781 25.860093 C 16.410266 26.1102 16.331492 26.350688 16.228848 26.583962 C 16.126203 26.817235 16.002075 27.038484 15.851689 27.250113 C 15.70369 27.459338 15.534208 27.654133 15.345629 27.832094 C 15.154663 28.010055 14.949374 28.171182 14.727376 28.310665 C 14.50299 28.452553 14.269057 28.570392 14.020801 28.666587 C 13.774931 28.762782 13.519514 28.837333 13.256936 28.885431 C 12.994357 28.935933 12.727004 28.959982 12.459652 28.959982 C 12.192299 28.959982 11.927333 28.935933 11.664755 28.885431 C 11.402176 28.837333 11.146759 28.762782 10.898503 28.666587 C 10.650246 28.570392 10.416313 28.452553 10.194315 28.310665 C 9.969929 28.171182 9.764641 28.010055 9.576061 27.832094 C 9.385095 27.654133 9.215613 27.459338 9.067614 27.250113 C 8.919615 27.038484 8.7931 26.817235 8.690456 26.583962 C 8.587811 26.350688 8.511425 26.1102 8.458909 25.860093 C 8.406393 25.61239 8.380135 25.362283 8.380135 25.109771 C 8.380135 24.857258 8.406393 24.607151 8.458909 24.359448 C 8.511425 24.111746 8.587811 23.871258 8.690456 23.63558 C 8.7931 23.402306 8.919615 23.181057 9.067614 22.971833 C 9.215613 22.760203 9.385095 22.565408 9.576061 22.387447 C 9.764641 22.209486 9.969929 22.048359 10.194315 21.908876 C 10.416313 21.769393 10.650246 21.649149 10.898503 21.552954 C 11.146759 21.456759 11.402176 21.382208 11.664755 21.33411 C 11.927333 21.283608 12.192299 21.259559 12.459652 21.259559 C 12.727004 21.259559 12.994357 21.283608 13.256936 21.33411 C 13.519514 21.382208 13.774931 21.456759 14.020801 21.552954 C 14.269057 21.649149 14.50299 21.769393 14.727376 21.908876 C 14.949374 22.048359 15.154663 22.209486 15.345629 22.387447 C 15.534208 22.565408 15.70369 22.760203 15.851689 22.971833 C 16.002075 23.181057 16.126203 23.402306 16.228848 23.63558 C 16.331492 23.871258 16.410266 24.111746 16.462781 24.359448 C 16.51291 24.607151 16.539168 24.857258 16.539168 25.109771 Z M 16.539168 25.109771 " stroke="#ffffff" stroke-width="2" stroke-opacity="1" stroke-miterlimit="4"/></g><path stroke-linecap="round" transform="matrix(-1.636415, 0, 0, 1.624302, 119.619629, 0.253214)" fill="none" stroke-linejoin="round" d="M 16.539168 25.109771 L 40.250013 25.109771 " stroke="#ffffff" stroke-width="2" stroke-opacity="1" stroke-miterlimit="4"/><g clip-path="url(#29daafc75a)"><path stroke-linecap="round" transform="matrix(-1.636415, 0, 0, 1.624302, 119.619629, 0.253214)" fill="none" stroke-linejoin="round" d="M 47.709631 25.109771 L 53.209459 25.109771 C 54.550997 25.109771 55.629956 23.919355 55.629956 22.449974 L 55.629956 13.989609 C 55.629956 13.989609 55.629956 3.828994 55.629956 3.828994 C 55.629956 2.270632 54.36003 1.000856 52.798881 1.000856 L 33.960062 1.000856 C 33.960062 1.000856 26.78928 1.000856 26.78928 1.000856 C 25.700773 1.000856 24.679103 1.529929 24.089495 2.400496 L 22.210865 5.170916 L 17.589482 12.010393 L 50.029871 12.010393 C 50.750769 12.010393 51.349925 11.450056 51.349925 10.769475 L 51.349925 6.39981 C 51.349925 5.719229 50.760317 5.170916 50.029871 5.170916 L 22.210865 5.170916 C 22.210865 5.170916 22.189381 5.170916 22.189381 5.170916 " stroke="#ffffff" stroke-width="2" stroke-opacity="1" stroke-miterlimit="4"/></g><g clip-path="url(#07d98e22cf)"><path stroke-linecap="round" transform="matrix(-1.636415, 0, 0, 1.624302, 119.619629, 0.253214)" fill="none" stroke-linejoin="round" d="M 17.708836 12.010393 L 4.388941 12.010393 C 2.519859 12.010393 0.99929 13.530277 0.99929 15.398868 L 0.99929 17.070259 C 0.99929 17.070259 0.99929 22.449974 0.99929 22.449974 C 0.99929 23.919355 2.46973 25.109771 4.279136 25.109771 L 8.370587 25.109771 " stroke="#ffffff" stroke-width="2" stroke-opacity="1" stroke-miterlimit="4"/></g><path stroke-linecap="round" transform="matrix(-1.636415, 0, 0, 1.624302, 119.619629, 0.253214)" fill="none" stroke-linejoin="round" d="M 43.649212 5.170916 L 43.649212 12.010393 " stroke="#ffffff" stroke-width="2" stroke-opacity="1" stroke-miterlimit="4"/><path stroke-linecap="round" transform="matrix(-1.636415, 0, 0, 1.624302, 119.619629, 0.253214)" fill="none" stroke-linejoin="round" d="M 31.689951 5.170916 L 31.689951 12.010393 " stroke="#ffffff" stroke-width="2" stroke-opacity="1" stroke-miterlimit="4"/></svg>